<svg width="308" height="24" viewBox="0 0 308 24" fill="none" xmlns="http://www.w3.org/2000/svg">
<path d="M1.66 7.04V1.72H6.7V21.88H4.46V23H15.38V21.88H13.14V1.72H18.18V7.04H19.44V0.6H0.4V7.04H1.66ZM45.4597 21.88V23H33.8677V21.88H36.8637L34.5117 14.6H26.7557L24.3757 21.88H27.2317V23H21.1277V21.88H23.0317L29.9477 0.6H36.6397L43.5557 21.88H45.4597ZM34.1477 13.48L30.6197 2.672L27.1197 13.48H34.1477ZM63.5105 21.88H54.9705V1.72H57.2105V0.6H46.2905V1.72H48.5305V21.88H46.2905V23H64.7705V16.56H63.5105V21.88ZM84.1734 23V16.56H82.9134V21.88H74.8494V12.08H82.0734V10.96H74.8494V1.72H82.9134V7.04H84.1734V0.6H66.1694V1.72H68.4094V21.88H66.1694V23H84.1734ZM87.2438 16.28H88.5038V19.304L91.0798 21.88H100.096L87.5238 7.068V3.204L90.1278 0.6H101.132L103.092 2.56V0.319998H104.352V7.32H103.092V4.296L100.516 1.72H92.3398L104.912 16.532V20.396L102.308 23H90.4638L88.5038 21.04V23.28H87.2438V16.28ZM117.882 23H130.454L133.338 20.116V3.484L130.454 0.6H117.882L114.998 3.484V20.116L117.882 23ZM121.438 1.72H126.898V21.88H121.438V1.72ZM146.214 23V21.88H143.974V12.64H150.638V11.52H143.974V1.72H151.758V7.04H153.018V0.6H135.294V1.72H137.534V21.88H135.294V23H146.214ZM194.924 1.72H193.076L187.364 23H180.672L178.012 13.144L175.38 23H168.688L162.976 1.72H161.128V0.6H183.724V1.72H181.652L186.692 20.508L191.732 1.72H188.68V0.6H194.924V1.72ZM177.368 10.68L174.96 1.72H169.668L174.708 20.508L177.368 10.68ZM199.475 23H212.047L214.931 20.116V3.484L212.047 0.6H199.475L196.591 3.484V20.116L199.475 23ZM203.031 1.72H208.491V21.88H203.031V1.72ZM240.8 1.72H238.56V23H231L220.388 1.72V21.88H222.628V23H216.888V21.88H219.128V1.72H216.888V0.6H226.688L237.3 21.88V1.72H235.06V0.6H240.8V1.72ZM262.068 3.484V20.116L259.184 23H241.908V21.88H244.148V1.72H241.908V0.6H259.184L262.068 3.484ZM250.588 1.72V21.88H255.628V1.72H250.588ZM282.033 23V16.56H280.773V21.88H272.709V12.08H279.933V10.96H272.709V1.72H280.773V7.04H282.033V0.6H264.029V1.72H266.269V21.88H264.029V23H282.033ZM296.023 23V21.88H293.783V12.36H298.347V20.676L300.671 23H307.027V21.88H304.787V14.124L302.463 11.8L304.787 9.476V3.204L302.183 0.6H285.103V1.72H287.343V21.88H285.103V23H296.023ZM293.783 1.72H298.347V11.24H293.783V1.72Z" fill="white"/>
</svg>
