<svg width="24" height="24" viewBox="0 0 24 24" fill="none" xmlns="http://www.w3.org/2000/svg">
<g clip-path="url(#clip0_15_268)">
<path d="M4.29906 22.275C4.18205 22.941 4.83906 23.4615 5.41806 23.1645L12.0031 19.7805L18.5866 23.1645C19.1656 23.4615 19.8226 22.941 19.7056 22.2765L18.4606 15.1815L23.7436 10.1475C24.2386 9.67652 23.9836 8.81552 23.3206 8.72252L15.9736 7.67852L12.6976 1.18802C12.6351 1.05646 12.5367 0.945297 12.4136 0.86746C12.2906 0.789624 12.1479 0.748306 12.0023 0.748306C11.8567 0.748306 11.7141 0.789624 11.591 0.86746C11.4679 0.945297 11.3695 1.05646 11.3071 1.18802L8.03106 7.68002L0.684055 8.72402C0.0225553 8.81702 -0.233945 9.67802 0.259555 10.149L5.54406 15.183L4.29906 22.278V22.275ZM11.6566 18.1245L6.12756 20.9655L7.16856 15.03C7.19294 14.8934 7.1834 14.7529 7.14077 14.6208C7.09814 14.4887 7.02372 14.3691 6.92406 14.2725L2.56506 10.1175L8.64305 9.25352C8.76891 9.23452 8.88829 9.18529 8.99095 9.11005C9.09362 9.03481 9.17652 8.93581 9.23256 8.82152L12.0001 3.33452L14.7706 8.82152C14.8266 8.93581 14.9095 9.03481 15.0122 9.11005C15.1148 9.18529 15.2342 9.23452 15.3601 9.25352L21.4381 10.116L17.0791 14.271C16.9792 14.3678 16.9046 14.4876 16.862 14.62C16.8193 14.7523 16.8099 14.8932 16.8346 15.03L17.8756 20.9655L12.3466 18.1245C12.2396 18.0694 12.1211 18.0406 12.0008 18.0406C11.8805 18.0406 11.762 18.0694 11.6551 18.1245H11.6566Z" fill="black"/>
</g>
<defs>
<clipPath id="clip0_15_268">
<rect width="24" height="24" fill="white"/>
</clipPath>
</defs>
</svg>
